<?xml version="1.0" encoding="UTF-8" standalone="no"?>
<!-- Created with Inkscape (http://www.inkscape.org/) -->

<svg
   width="1920"
   height="1920"
   viewBox="0 0 508 508"
   version="1.1"
   id="svg1"
   xml:space="preserve"
   inkscape:version="1.4.2 (f4327f4, 2025-05-13)"
   sodipodi:docname="LOOM-logo.svg"
   inkscape:export-filename="LOOM-logo-300x300.png"
   inkscape:export-xdpi="15"
   inkscape:export-ydpi="15"
   xmlns:inkscape="http://www.inkscape.org/namespaces/inkscape"
   xmlns:sodipodi="http://sodipodi.sourceforge.net/DTD/sodipodi-0.dtd"
   xmlns:xlink="http://www.w3.org/1999/xlink"
   xmlns="http://www.w3.org/2000/svg"
   xmlns:svg="http://www.w3.org/2000/svg"><sodipodi:namedview
     id="namedview1"
     pagecolor="#000000"
     bordercolor="#000000"
     borderopacity="0.25"
     inkscape:showpageshadow="2"
     inkscape:pageopacity="0.0"
     inkscape:pagecheckerboard="0"
     inkscape:deskcolor="#d1d1d1"
     inkscape:document-units="mm"
     showguides="true"
     inkscape:zoom="0.50000001"
     inkscape:cx="774.99998"
     inkscape:cy="982.99997"
     inkscape:window-width="1920"
     inkscape:window-height="1009"
     inkscape:window-x="-8"
     inkscape:window-y="-8"
     inkscape:window-maximized="1"
     inkscape:current-layer="layer5"
     showgrid="false"><inkscape:grid
       id="grid2"
       units="mm"
       originx="-310.87579"
       originy="-79.612328"
       spacingx="0.99999998"
       spacingy="1"
       empcolor="#0099e5"
       empopacity="0.30196078"
       color="#0099e5"
       opacity="0.14901961"
       empspacing="5"
       enabled="true"
       visible="false" /></sodipodi:namedview><defs
     id="defs1"><pattern
       inkscape:collect="always"
       xlink:href="#Bamboo"
       preserveAspectRatio="xMidYMid"
       id="pattern28"
       patternTransform="translate(516.34855,44.379787)" /><pattern
       inkscape:collect="always"
       xlink:href="#Bamboo"
       preserveAspectRatio="xMidYMid"
       id="pattern27"
       patternTransform="translate(516.34855,44.379787)" /><pattern
       inkscape:collect="always"
       xlink:href="#Bamboo"
       preserveAspectRatio="xMidYMid"
       id="pattern26"
       patternTransform="translate(516.34855,44.379787)" /><pattern
       inkscape:collect="always"
       xlink:href="#Bamboo"
       preserveAspectRatio="xMidYMid"
       id="pattern25"
       patternTransform="translate(516.34855,44.379787)" /><pattern
       patternUnits="userSpaceOnUse"
       preserveAspectRatio="xMidYMid"
       width="120.7296"
       height="193.4609"
       patternTransform="translate(516.34855,44.379787)"
       style="fill:#000000"
       id="Bamboo"
       inkscape:collect="always"
       inkscape:isstock="true"
       inkscape:label=""><path
         id="path48322"
         style="fill-opacity:1;stroke:none;stroke-width:1.63434;stroke-linecap:square;stroke-dasharray:none;stroke-opacity:1;paint-order:markers fill stroke"
         d="m 14.841449,0 c 0.0189,2.0204523 0.06501,6.5526917 0.06501,10.64533 0,5.120648 -0.894085,15.037044 -0.894085,15.037044 l 6.096075,2.275899 c 0,0 -0.812787,-12.923762 -0.812787,-16.581426 0,-3.0531292 0.196913,-9.121909 0.271748,-11.376847 z m 31.648985,0 c -0.01512,0.2103685 -0.07219,0.9835011 -0.291024,3.5331817 -0.243779,2.8448429 -0.975382,4.8362495 -0.975382,4.8362495 h 9.469323 c 0,0 0,-0.6908674 -0.731566,-3.210618 C 53.362617,3.0946658 53.362843,0.79725732 53.382686,0 Z M 68.982535,0 68.65485,10.345595 74.91987,7.3572246 74.329281,0 Z m 31.501645,0 c 0.1285,1.0540838 0.95021,8.1364687 0.47119,14.31061 -0.5173,6.667023 -1.493591,14.42617 -1.493591,14.42617 h 9.253381 c 0,0 -1.61034,-11.32224 -1.61034,-17.644403 0,-5.620411 0.47701,-10.11551275 0.58801,-11.092377 z m -9.342313,0.85724976 c 0,0 -0.362079,6.13150114 0.440731,9.46930024 1.210356,5.033106 2.138003,7.839341 2.557833,2.974386 C 94.559165,8.4359811 91.141867,0.85724976 91.141867,0.85724976 Z M 22.269808,7.221343 c 0,0 -1.481953,4.182981 -0.94235,6.877172 0.539566,2.694119 0.895597,1.144528 1.275099,-1.637061 C 22.854274,10.61675 22.269959,7.221343 22.269959,7.221343 Z M 74.747184,9.6559824 68.76918,12.011853 c 0,0 0.919522,6.724679 0.919522,16.667788 0,9.943056 -1.149392,19.254799 -1.149392,19.254799 0,0 1.207785,12.528868 0.748044,21.092528 -0.459818,8.563727 -1.149355,16.610621 -1.149355,16.610621 h 6.723478 c 0,0 -1.033701,-13.105089 -1.090923,-18.335296 -0.05745,-5.230188 0.97663,-20.5185 0.97663,-20.5185 0,0 -0.747553,-14.137712 -0.862337,-18.678209 -0.114898,-4.540498 0.862337,-18.4496016 0.862337,-18.4496016 z m -29.522967,0.01474 c 0,0 1.300497,5.9335376 1.300497,17.4755146 0,11.541903 -1.2192,20.808031 -1.2192,20.808031 0,0 1.625613,13.411456 1.300498,19.426269 -0.325039,6.014832 -1.381795,17.881908 -1.381795,17.881908 l 8.45331,-2.113304 c 0,0 -0.650268,-11.379407 -0.812825,-19.182419 -0.16252,-7.803018 1.300497,-16.987822 1.300497,-16.987822 0,0 -1.056642,-11.216855 -1.056642,-21.295748 0,-10.078866 1.341127,-16.0124296 1.341127,-16.0124296 z m 32.355118,0.034394 c 0,0 7.213115,6.4563246 12.135042,8.7542736 7.421896,3.465105 11.811323,5.089236 6.220574,-0.194381 C 90.343102,12.982723 77.579335,9.7050595 77.579335,9.7050595 Z M 34.049288,10.206769 c 0,0 -6.279232,0.98033 -9.306709,3.493837 -3.027417,2.513382 -0.831874,1.906367 2.931212,0.491501 2.495623,-0.938302 6.375497,-3.985338 6.375497,-3.985338 z m -10.726602,6.437749 c -2.081892,0.02835 0.03779,1.228206 3.498898,2.89186 2.721713,1.307562 8.252636,2.096787 8.252636,2.096787 0,0 -5.717858,-4.369814 -10.14497,-4.87943 -0.691692,-0.07963 -1.221014,-0.11452 -1.606564,-0.109115 z m 42.91663,5.024209 c 0,0 -4.038312,4.628723 -5.445884,7.759835 -2.122431,4.721476 -3.105713,7.507706 0.203339,3.916747 3.308069,-3.591575 5.242658,-11.676582 5.242658,-11.676582 z m -7.029619,3.517969 c 0,0 -3.104542,6.220959 -3.754167,10.052228 -0.979464,5.777205 -1.262929,9.109867 1.338633,4.232969 2.600315,-4.877363 2.416819,-14.285197 2.416819,-14.285197 z m -45.36011,2.040926 c 0,0 1.056567,10.404038 1.137941,19.50754 0.08126,9.103529 -1.219238,18.369607 -1.219238,18.369607 h 6.827641 c 0,0 -1.2192,-9.997621 -1.2192,-13.655281 0.01134,-7.276195 -0.253607,-14.602946 0.894085,-21.783417 z m 98.594413,1.45163 c 0,0 -1.88515,5.070266 -2.14129,8.116709 -0.38615,4.593781 -0.40709,7.226578 1.19131,3.24237 1.59753,-3.984526 0.94998,-11.359079 0.94998,-11.359079 z m -12.982221,1.496092 c 0,0 1.550701,12.127041 1.550701,18.966516 0,6.839474 -1.379224,16.322316 -1.379224,16.322316 l 8.966364,2.298756 c 0,0 -1.66711,-11.953634 -1.4948,-19.36785 0.17234,-7.414243 1.32207,-18.219738 1.32207,-18.219738 z m 18.264191,4.724473 c 0,0 -4.72626,5.466562 -6.46186,9.15433 -2.61695,5.560834 -3.86464,8.840855 -0.003,4.59874 3.86094,-4.242852 6.46568,-13.75307 6.46568,-13.75307 z m -50.910087,0.10938 c 0,0 -4.041411,1.203092 -6.007219,2.503207 -2.964208,1.960487 -4.558488,3.216121 -1.320794,2.347 3.23743,-0.869809 7.328013,-4.850207 7.328013,-4.850207 z m -7.269581,14.022304 v 0.0013 c 0,0 2.476686,4.791768 4.54919,6.935596 3.12514,3.232659 5.050167,4.917644 3.181418,1.054106 -1.869506,-3.863142 -7.730608,-7.991002 -7.730608,-7.991002 z m -3.283049,3.159817 c 0,0 2.265449,1.957883 3.798652,2.659416 2.312088,1.057746 3.676649,1.555124 1.918979,-0.04694 -1.757896,-1.601767 -5.717631,-2.612424 -5.717631,-2.612424 z m -25.894507,3.357929 c 0,0 -4.501833,8.545225 -4.184693,14.517644 0.317102,5.972242 1.568806,2.745505 3.25886,-3.126811 1.120819,-3.894383 0.925833,-11.390833 0.925833,-11.390833 z m 31.749335,0.773443 c -0.08428,7.18e-4 -0.173858,0.0016 -0.266834,0.0049 -2.977739,0.07176 -7.268334,2.590847 -7.268334,2.590847 0,0 3.739956,-0.188992 5.689701,-0.882663 2.848176,-1.013458 4.454966,-1.732713 1.845354,-1.711994 z M 14.093405,66.730543 c 0,0 1.381682,9.753843 1.219238,18.532153 -0.16252,8.778407 -1.219238,21.702144 -1.219238,21.702144 l 6.339968,-2.76357 c 0,0 -0.812825,-13.167638 -0.812825,-20.808034 0,-7.640467 0.812825,-16.662693 0.812825,-16.662693 z m 85.655429,0.401328 c 0,0 1.206576,11.034403 1.436406,19.080803 0.2298,8.046472 -1.551984,18.966516 -1.551984,18.966516 h 9.368954 c 0,0 -1.265,-16.552249 -1.49484,-22.184753 -0.23017,-5.632498 1.32216,-13.506692 1.32216,-13.506692 z M 42.84421,69.557589 c -0.01134,0.0026 -13.182803,3.262721 -19.154494,9.175932 -5.974579,5.915871 -1.416129,4.214071 6.329801,0.499127 5.134451,-2.462509 12.817248,-9.668076 12.824693,-9.675059 z m 40.768952,5.185508 v 0.0013 c 0,0 5.131237,7.552066 8.99176,10.818032 5.821418,4.924647 9.336118,7.456122 5.406501,1.351307 C 94.080563,80.810106 83.613162,74.743097 83.613162,74.743097 Z M 53.8261,84.776275 45.08959,87.650341 c 0,0 1.610079,10.517317 1.667527,17.011959 0.05745,6.49454 -1.609096,20.92108 -1.609096,20.92108 h 8.90795 c 0,0 -1.608529,-9.25352 -1.493556,-19.82888 C 52.677313,95.179258 53.8261,84.776275 53.8261,84.776275 Z m 14.483339,2.298763 c 0,0 0.804472,9.885181 0.919483,18.563902 0.114898,8.67866 -0.919483,17.12752 -0.919483,17.12752 l 6.26502,2.24159 c 0,0 -0.804132,-13.50623 -0.976668,-20.8055 -0.172346,-7.299352 1.092246,-17.127512 1.092246,-17.127512 z M 93.77461,89.58586 c -5.04582,-0.05013 -12.560239,4.379249 -12.57067,4.385394 0,0 6.349795,-0.120666 9.72204,-1.295425 5.084977,-1.771467 7.89823,-3.038358 2.84863,-3.089969 z m -57.166204,7.221342 c 0,0 -0.301607,6.752698 0.582916,10.289708 1.335269,5.33358 2.34463,8.27184 2.724208,2.89567 0.378709,-5.37644 -3.307124,-13.185378 -3.307124,-13.185378 z m 39.711061,7.879238 c 0,0 -0.86143,3.09697 -0.720113,4.86163 0.213543,2.66104 0.487408,4.16409 1.252271,1.71709 0.76422,-2.44721 -0.530911,-6.57872 -0.530911,-6.57872 z m -55.886094,1.30304 -6.339968,2.76357 c 0,0 0.812825,13.16764 0.812825,20.80803 0,7.64047 -0.975383,15.76861 -0.975383,15.76861 0,0 0.983811,11.07298 1.052863,17.23292 0.06917,6.16003 -0.759458,19.73615 -0.759458,19.73615 h 6.772989 c 0,0 -1.528214,-10.64523 -1.653543,-17.13641 -0.125481,-6.49115 1.252233,-21.70215 1.252233,-21.70215 0,0 -1.54424,-6.99027 -1.381796,-15.76857 0.16252,-8.77841 1.219238,-21.70215 1.219238,-21.70215 z m 79.372645,0.68452 c 0,0 1.609812,8.73558 1.494802,17.70158 -0.1149,8.966 -1.609132,20.46132 -1.609132,20.46132 0,0 1.034342,6.38005 1.149352,17.76002 0.1149,11.37994 -1.494801,19.82886 -1.494801,19.82886 l 8.966361,-1.95457 c 0,0 -0.34469,-9.19527 -1.14939,-17.93146 -0.80459,-8.73611 1.32212,-18.62232 1.32212,-18.62232 0,0 -1.03526,-9.88528 -1.20783,-18.7938 -0.17234,-8.90858 1.60914,-18.44963 1.60914,-18.44963 z m -75.526998,0.12584 c 0,0 6.84446,6.54676 11.451779,8.81016 6.947263,3.41293 11.042722,4.98717 5.730331,-0.37848 -5.313487,-5.36489 -17.18211,-8.43168 -17.18211,-8.43168 z m 64.81559,0.01 c 0,0 -4.904126,1.12697 -7.368642,2.47273 -3.716334,2.02957 -5.736907,3.34594 -1.818709,2.54892 3.918047,-0.79778 9.187351,-5.02165 9.187351,-5.02165 z m -11.450494,6.78826 c -1.156687,-0.003 -1.090356,0.51851 0.994431,1.95456 3.706734,2.55202 11.338734,2.57052 11.338734,2.57052 0,0 -4.747011,-3.05423 -7.787792,-3.7453 -2.006098,-0.4558 -3.645732,-0.77713 -4.545373,-0.77978 z m 42.952134,5.02929 c 0,0 -3.75575,4.56556 -5.11691,7.69887 -2.05243,4.72476 -3.02438,7.52117 0.0469,3.98534 3.07041,-3.53661 5.06989,-11.68421 5.06989,-11.68421 z m -6.96483,2.98582 c 0,0 -3.27504,6.31912 -3.96624,10.29354 -1.04213,5.99304 -1.34767,9.46935 1.39574,4.52634 2.7419,-4.94355 2.5705,-14.81988 2.5705,-14.81988 z m -45.436312,2.76229 c 0,0 1.034457,12.01281 1.379263,17.70285 0.345071,5.68996 -1.264932,20.11588 -1.264932,20.11588 h 6.437745 c 0,0 -0.919408,-17.52939 -0.97663,-21.725 -0.05745,-4.19562 0.861014,-14.02358 0.861014,-14.02358 z m -10.246526,1.22686 c 0,0 -1.802457,4.94769 -1.959647,7.88429 -0.236977,4.42801 -0.161008,6.95714 1.377978,3.06455 1.53789,-3.89288 0.581669,-10.94884 0.581669,-10.94884 z m -12.973285,1.36018 c 0,0 1.551345,7.24206 1.666243,15.97815 0.114897,8.73611 -1.206501,19.88601 -1.206501,19.88601 l 8.907949,1.78185 c 0,0 -1.838702,-13.39239 -1.436409,-22.64576 0.402331,-9.2534 0.919521,-15.00025 0.919521,-15.00025 z m 75.754303,5.25031 c 0,0 -3.81427,1.21275 -5.73033,2.46384 -2.88923,1.88659 -4.4592,3.08724 -1.41226,2.20347 3.04664,-0.88448 7.14259,-4.66731 7.14259,-4.66731 z m -57.939708,0.0954 c 0,0 -4.64897,5.24692 -6.278967,8.8076 -2.457826,5.36912 -3.600529,8.54005 0.208252,4.47048 3.807685,-4.07037 6.071963,-13.27808 6.071963,-13.27808 z M 5.0305512,145.98621 c 0,0 2.8450394,6.5235 6.6383998,9.10987 3.793172,2.58632 2.484699,0.37862 -0.201827,-3.30462 -1.7817067,-2.4426 -6.4364594,-5.80525 -6.4364594,-5.80525 z m -3.8634331,3.12045 c 0,0 2.9317417,2.7807 5.4877606,3.29314 2.5559811,0.51251 1.3833071,-0.35176 -0.8369385,-1.68278 -1.4708032,-0.88175 -4.6439811,-1.60882 -4.6508221,-1.61036 z m 83.3947809,3.28171 c 0,0 -3.122079,6.57319 -3.535748,10.58947 -0.623471,6.05644 -0.646111,9.543 2.001562,4.38665 2.646312,-5.15695 1.534186,-14.97612 1.534186,-14.97612 z m -76.2661384,0.73532 c -0.5984882,0.0174 -1.6220976,0.19933 -2.8613669,0.45344 C 3.4114016,153.99196 0,155.93809 0,155.93809 c 0,0 4.8600567,0.0872 7.543937,-1.54306 1.5934488,-0.96799 1.6265197,-1.29574 0.7518236,-1.27134 z M 68.53931,163.57347 c 0,0 0.568743,6.78288 0.977915,13.44953 0.403842,6.58024 -0.512202,15.17897 -0.53469,16.43699 h 5.346784 c -0.165543,-1.72642 -0.161386,-7.6927 -0.271748,-15.57463 -0.111118,-7.9315 0.689613,-14.31189 0.689613,-14.31189 z m -23.104271,0.8052 c 0,0 0.977575,6.78236 1.26497,12.35733 0.295937,5.45542 -0.01134,13.94498 -0.209764,16.72399 h 6.892441 c -0.441638,-5.58443 -0.470891,-9.97521 -0.533405,-13.62134 -0.114897,-4.36804 1.379225,-13.39111 1.379225,-13.39111 z m 50.53423,2.69117 c 0,0 -9.553474,3.66636 -13.803893,6.52283 -6.409059,4.30769 -9.742186,6.92697 -2.035843,4.13268 7.70366,-2.79464 15.835956,-10.65185 15.839736,-10.65551 z m -67.208334,3.86592 c 0,0 5.15709,7.94298 9.121285,11.20417 5.977512,4.91751 9.602135,7.39115 5.664302,0.9487 -3.939099,-6.44197 -14.785587,-12.15287 -14.785587,-12.15287 z m 79.579555,11.46071 -8.878711,2.06886 1.022401,8.99557 h 7.20865 z m -94.247085,1.54179 c 0.528226,5.12073 0.748044,9.52173 0.748044,9.52173 h 4.725845 c 0,0 -0.04838,-2.25723 0.784668,-4.7261 0.80829,-2.3952 0.609638,-4.79563 0.609638,-4.79563 z m 24.723568,2.79789 c -5.478463,0.0147 -13.064731,4.56571 -13.064731,4.56571 0,0 6.864983,-0.203 10.369738,-1.42622 5.284725,-1.84437 8.173229,-3.15328 2.694993,-3.13949 z"
         sodipodi:nodetypes="csccscccsccsccccccccsccscccscccsscccscsccscsccscsccscscccscccsscsscsscscccsccccsccccccscccsccscccsccccscsccscccscccsscccccscsccssccsccscccsscccscccccccsccsccsccccsccccccccccscscsccscsccscsccscscccscccsccsscsscscccscccsccscscscccsccscscscccsccccssccsccccccsscsscsccscccsccscccccccsccccccccccsccccscsccccsc" /></pattern><linearGradient
       id="linearGradient15"><stop
         style="stop-color:#000000;stop-opacity:1;"
         offset="0"
         id="stop19" /><stop
         style="stop-color:#000000;stop-opacity:0;"
         offset="1"
         id="stop20" /></linearGradient><linearGradient
       id="linearGradient15-1"><stop
         style="stop-color:#000000;stop-opacity:1;"
         offset="0"
         id="stop15" /><stop
         style="stop-color:#000000;stop-opacity:0;"
         offset="1"
         id="stop16" /></linearGradient></defs><g
     id="g15"
     inkscape:label="Loom Full Logo"
     transform="matrix(2.8446601,0,0,2.8446601,-776.30601,-59.393768)"
     style="display:inline"><g
       id="g10"
       inkscape:label="Loom Logo"
       transform="translate(2.245064,-8.2319007)"><g
         fill="none"
         stroke-linecap="butt"
         id="g14"
         transform="matrix(0.26458333,0,0,0.26458334,220.00001,0)"><path
           stroke="#20a8e2"
           d="m 471,282 c 22,-22 40.45,-40 41,-40 0.55,0 19,18.23 41,40.5 22,22.27 40.67,41.62 41.5,43 0.83,1.38 1.95,5.65 2.5,9.5 0.55,3.85 1.23,10.15 1.5,14 0.27,3.85 0.05,12.18 -0.5,18.5 -0.55,6.32 -1.9,15.77 -3,21 -1.1,5.23 -3.8,14.9 -6,21.5 -2.2,6.6 -5.35,14.7 -10,24 l 3,6 c 2.67,5.33 2.89,6.44 2,10 -0.55,2.2 -1.45,4.45 -2,5 -0.67,0.67 -1.17,0.67 -1.5,0 -0.27,-0.55 -2.75,-4.38 -5.5,-8.5 -3.23,-4.85 -14.55,-17.23 -32,-35 -14.85,-15.12 -27,-27.95 -27,-28.5 0,-0.55 1.58,-2.35 7,-7 l 5,5.5 c 2.75,3.02 13.55,14.05 24,24.5 16.89,16.89 19.17,18.83 20.5,17.5 0.83,-0.82 2.85,-5.1 4.5,-9.5 1.65,-4.4 4.12,-12.27 5.5,-17.5 1.38,-5.23 3.17,-14.23 4,-20 0.83,-5.77 1.5,-14.55 1.5,-19.5 0,-4.95 -0.45,-12.38 -1,-16.5 -0.55,-4.12 -1.67,-8.85 -2.5,-10.5 -0.83,-1.65 -17.48,-18.98 -72.5,-74 l -36.5,36.5 c -31.33,31.33 -36.64,37.07 -37.5,40.5 -0.55,2.2 -1,12.77 -1,23.5 0,15.5 0.41,21.55 2,29.5 1.1,5.5 3.8,15.4 6,22 2.2,6.6 4.68,13.35 7,18 l 10,-9.5 c 5.5,-5.23 16.07,-16.25 23.5,-24.5 7.43,-8.25 16.65,-18.6 20.5,-23 3.85,-4.4 10.38,-13.18 14.5,-19.5 4.12,-6.32 9.3,-15.32 11.5,-20 2.2,-4.68 4,-9.85 4,-11.5 0,-2.53 -1.89,-4.81 -24,-26 l -25,25 2.5,6.5 c 1.38,3.57 3.4,8.3 4.5,10.5 1.1,2.2 4.48,8.05 13,22 l -2.5,3.5 c -1.38,1.93 -2.95,3.5 -3.5,3.5 -0.55,0 -3.7,-4.05 -7,-9 -3.3,-4.95 -8.25,-13.5 -16,-29 l -3.5,4 c -1.93,2.2 -4.85,6.7 -6.5,10 -1.65,3.3 -3.9,8.93 -5,12.5 -1.1,3.57 -2.45,11 -3,16.5 -0.67,6.67 -0.67,13.33 0,20 0.55,5.5 1.45,11.57 2,13.5 0.67,2.33 0.67,4 0,5 -0.55,0.82 -1.9,1.95 -3,2.5 -1.1,0.55 -2.9,0.77 -4,0.5 -1.59,-0.4 -2.31,-2.04 -3.5,-8 -0.99,-4.95 -1.5,-13.44 -1.5,-25 0,-14.33 0.36,-18.86 2,-25 1.1,-4.12 3.57,-10.88 5.5,-15 1.93,-4.12 5.3,-9.75 7.5,-12.5 2.2,-2.75 13.68,-14.45 47,-47 l 21.5,21 c 11.83,11.55 23.3,23.25 25.5,26 2.2,2.75 4.9,6.8 6,9 1.1,2.2 2.9,6.48 4,9.5 1.1,3.02 2.67,8.65 3.5,12.5 0.83,3.85 1.73,12.18 2,18.5 0.33,7.58 -0.01,14.91 -1,21.5 -0.83,5.5 -2.17,11.12 -3,12.5 -0.83,1.38 -2.17,2.5 -3,2.5 -0.83,0 -2.62,-1.12 -6.5,-5 l 1.5,-7 c 0.88,-4.11 1.5,-12.17 1.5,-19.5 0,-8.83 -0.59,-15.14 -2,-21.5 -1.1,-4.95 -3.58,-12.38 -5.5,-16.5 -1.92,-4.12 -4.85,-9.07 -6.5,-11 -1.65,-1.93 -3.45,-3.5 -4,-3.5 -0.55,0 -2.8,3.82 -5,8.5 -2.2,4.68 -7.38,13.68 -11.5,20 -4.12,6.32 -12.23,17.12 -18,24 -5.77,6.88 -21.07,23.3 -34,36.5 -14.62,14.93 -25.39,26.83 -28.5,31.5 -2.75,4.12 -5.45,8.18 -6,9 -0.83,1.25 -1.17,1.08 -2,-1 -0.55,-1.38 -1,-4.3 -1,-6.5 0,-2.4 1,-5.8 5,-13 l -4,-9 c -2.2,-4.95 -5.35,-13.05 -7,-18 -1.65,-4.95 -4.12,-14.62 -5.5,-21.5 -2.1,-10.48 -2.5,-15.33 -2.5,-30 0,-9.62 0.45,-19.98 1,-23 0.55,-3.02 1.68,-6.85 2.5,-8.5 0.82,-1.65 19.5,-21 41.5,-43"
           vector-effect="non-scaling-stroke"
           id="path1" /><path
           stroke="#8051c4"
           d="m 455,443 1.71875,13.9375 L 452,468.5 c -2.75,6.32 -6.35,15.77 -8,21 -1.65,5.23 -3.9,13.77 -5,19 -1.21,5.75 -2.2,15.23 -2.5,24 -0.27,7.98 -0.05,18.33 1.5,31.5 l 31.5,32 c 17.32,17.6 33.98,34.48 42.5,43 l 35.5,-36 c 19.52,-19.8 36.17,-37.12 37,-38.5 0.83,-1.38 1.95,-6.77 2.5,-12 0.55,-5.23 0.77,-14.67 0.5,-21 -0.27,-6.33 -1.4,-16.23 -2.5,-22 -1.1,-5.77 -3.58,-15.23 -5.5,-21 -1.92,-5.77 -5.52,-14.77 -8,-20 -4.17,-8.8 -4.5,-10.09 -4.5,-17.5 0,-4.67 0.42,-8 1,-8 0.55,0 2.58,2.48 4.5,5.5 1.92,3.02 5.52,9.77 8,15 2.48,5.23 6.3,14.9 8.5,21.5 2.2,6.6 4.9,16.5 6,22 1.62,8.1 2,14 2,31 0,11.55 -0.45,23.48 -2,32 l -32,32.5 c -17.6,17.88 -36.05,36.55 -41,41.5 -4.95,4.95 -9.45,9 -10,9 -0.55,0 -19,-18.23 -41,-40.5 -22,-22.27 -40.68,-41.62 -41.5,-43 -0.82,-1.38 -1.95,-5.88 -2.5,-10 -0.55,-4.12 -1.23,-10.42 -1.5,-14 -0.27,-3.58 -0.05,-11.67 0.5,-18 0.55,-6.33 1.9,-16 3,-21.5 1.1,-5.5 3.57,-14.73 5.5,-20.5 1.93,-5.77 5.07,-13.88 7,-18 1.93,-4.12 5.75,-11.32 13.5,-24.5"
           vector-effect="non-scaling-stroke"
           id="path4"
           sodipodi:nodetypes="cccsccccccssssscsssssssccssssssssssc" /><path
           stroke="#7953c0"
           d="m 564,461 2.5,3.5 c 1.38,1.93 2.5,4.18 2.5,5 0,0.82 -9,10.73 -20,22 -11,11.27 -24.5,26.12 -30,33 -5.5,6.88 -12.7,16.55 -16,21.5 -3.3,4.95 -7.8,12.6 -10,17 -2.2,4.4 -4.68,9.58 -7,15 l 12.5,12.5 c 6.88,6.88 12.95,12.5 13.5,12.5 0.55,0 6.62,-5.4 13.5,-12 12.21,-11.72 12.48,-12.07 11.5,-15 -0.55,-1.65 -2.58,-6.38 -4.5,-10.5 -1.92,-4.12 -6.42,-11.77 -16.5,-26.5 l 3,-4 c 1.65,-2.2 3.45,-3.77 4,-3.5 0.55,0.27 3.92,5 7.5,10.5 3.58,5.5 8.3,13.83 10.5,18.5 2.2,4.67 4.45,8.5 5,8.5 0.55,0 2.35,-1.58 4,-3.5 1.65,-1.92 4.58,-6.88 6.5,-11 1.92,-4.12 4.17,-9.98 5,-13 0.86,-3.16 1.71,-11.89 2,-20.5 0.36,-10.84 0.08,-17.36 -1,-23.5 -1.45,-8.22 -1.43,-8.57 0.5,-10.5 1.1,-1.1 2.9,-2 4,-2 1.1,0 2.45,0.68 3,1.5 0.55,0.82 1.67,4.65 2.5,8.5 0.97,4.52 1.5,12.5 1.5,22.5 0,12 -0.45,17.42 -2,24 -1.1,4.67 -2.9,10.75 -4,13.5 -1.1,2.75 -4.02,8.15 -6.5,12 -3.13,4.87 -11.36,13.71 -49.5,51 l -25,-25 c -24.07,-24.07 -25.15,-25.31 -29,-33.5 -2.2,-4.67 -4.9,-12.33 -6,-17 -1.59,-6.75 -2,-12 -2,-25.5 0,-11.78 0.46,-18.84 1.5,-23 0.82,-3.3 1.95,-6.68 2.5,-7.5 0.55,-0.82 2.12,-1.5 3.5,-1.5 1.38,0 3.18,0.9 4,2 1.33,1.78 1.33,2.89 0,10 -0.88,4.7 -1.5,13.78 -1.5,22 0,10.83 0.45,15.7 2,21.5 1.1,4.12 3.12,9.98 4.5,13 1.38,3.02 4.3,7.98 6.5,11 2.2,3.02 4.45,5.5 5,5.5 0.55,0 2.57,-3.83 4.5,-8.5 1.93,-4.67 7.1,-13.9 11.5,-20.5 4.4,-6.6 11.6,-16.5 16,-22 4.4,-5.5 13.4,-15.62 20,-22.5 6.6,-6.88 16.95,-17.68 34,-35.5"
           vector-effect="non-scaling-stroke"
           id="path5" /><path
           stroke="#6167bf"
           d="m 458,462 21.5,20.5 c 11.82,11.27 22.85,22.3 27.5,28.5 l -7,7 -4.5,-5 c -2.48,-2.75 -12.6,-13.1 -22.5,-23 -9.9,-9.9 -18,-18.68 -18,-19.5 0,-0.82 0.68,-3.07 3,-8.5"
           vector-effect="non-scaling-stroke"
           id="path6" /></g><path
         fill="#20a8e2"
         d="m 344.61875,74.612502 c 5.82084,-5.820833 10.7024,-10.583334 10.84792,-10.583334 0.14552,0 5.02708,4.823355 10.84792,10.715626 5.82083,5.892271 10.7606,11.011958 10.9802,11.377083 0.21961,0.365125 0.51594,1.494896 0.66146,2.513542 0.14552,1.018646 0.32544,2.685521 0.39688,3.704167 0.0714,1.018646 0.0132,3.222625 -0.1323,4.894792 -0.14552,1.672166 -0.5027,4.172482 -0.79375,5.556252 -0.29104,1.38377 -1.00541,3.94229 -1.5875,5.68854 -0.58208,1.74625 -1.41552,3.88937 -2.64583,6.35 l 0.79375,1.5875 c 0.70644,1.41023 0.76465,1.70392 0.52917,2.64583 -0.14552,0.58209 -0.38365,1.1774 -0.52917,1.32292 -0.17727,0.17727 -0.30956,0.17727 -0.39687,0 -0.0714,-0.14552 -0.72761,-1.15887 -1.45521,-2.24896 -0.85461,-1.28323 -3.84969,-4.55877 -8.46667,-9.26042 -3.92906,-4.0005 -7.14375,-7.3951 -7.14375,-7.54062 0,-0.14552 0.41804,-0.62177 1.85209,-1.852084 L 359.7,100.93854 c 0.72761,0.79905 3.58511,3.7174 6.35,6.4823 4.46881,4.46881 5.07206,4.9821 5.42396,4.6302 0.2196,-0.21695 0.75406,-1.34937 1.19062,-2.51354 0.43657,-1.16416 1.09009,-3.24643 1.45521,-4.63021 0.36513,-1.38377 0.83873,-3.76502 1.05834,-5.291662 0.2196,-1.526646 0.39687,-3.849688 0.39687,-5.159375 0,-1.309688 -0.11906,-3.275542 -0.26458,-4.365625 -0.14552,-1.090084 -0.44186,-2.341563 -0.66146,-2.778126 -0.2196,-0.436562 -4.62492,-5.021791 -19.18229,-19.579167 l -9.65729,9.657292 c -8.2894,8.289396 -9.69434,9.808105 -9.92188,10.715625 -0.14552,0.582084 -0.26458,3.37873 -0.26458,6.217709 0,4.101042 0.10848,5.701769 0.52917,7.805209 0.29104,1.45521 1.00541,4.07458 1.5875,5.82083 0.58208,1.74625 1.23825,3.53219 1.85208,4.7625 l 2.64583,-2.51354 c 1.45521,-1.38377 4.25186,-4.29948 6.21771,-6.48229 1.96585,-2.18281 4.40531,-4.921251 5.42396,-6.085417 1.01864,-1.164167 2.74637,-3.487209 3.83646,-5.159375 1.09008,-1.672167 2.46062,-4.053417 3.04271,-5.291667 0.58208,-1.23825 1.05833,-2.606146 1.05833,-3.042709 0,-0.669395 -0.50006,-1.272645 -6.35,-6.879166 l -6.61458,6.614583 0.66145,1.719792 c 0.36513,0.944562 0.89959,2.196041 1.19063,2.778125 0.29104,0.582083 1.18533,2.129896 3.43958,5.820833 l -0.66146,0.926042 c -0.36512,0.510646 -0.78052,0.926042 -0.92604,0.926042 -0.14552,0 -0.97896,-1.071563 -1.85208,-2.38125 -0.87313,-1.309688 -2.18281,-3.571875 -4.23333,-7.672917 l -0.92605,1.058333 c -0.51064,0.582083 -1.28323,1.772709 -1.71979,2.645834 -0.43656,0.873125 -1.03187,2.362729 -1.32291,3.307291 -0.29105,0.944563 -0.64823,2.910417 -0.79375,4.365625 -0.17728,1.764771 -0.17728,3.526901 0,5.291671 0.14552,1.4552 0.38364,3.06123 0.52916,3.57187 0.17727,0.61648 0.17727,1.05833 0,1.32292 -0.14552,0.21696 -0.50271,0.51594 -0.79375,0.66146 -0.29104,0.14552 -0.76729,0.20373 -1.05833,0.13229 -0.42069,-0.10584 -0.61119,-0.53975 -0.92604,-2.11667 -0.26194,-1.30969 -0.39688,-3.556 -0.39688,-6.614582 0,-3.791479 0.0953,-4.990042 0.52917,-6.614584 0.29104,-1.090083 0.94456,-2.878666 1.45521,-3.96875 0.51064,-1.090083 1.40229,-2.579687 1.98437,-3.307292 0.58209,-0.727604 3.6195,-3.823229 12.43542,-12.435417 l 5.68854,5.556251 c 3.13002,3.055937 6.16479,6.151562 6.74687,6.879166 0.58209,0.727605 1.29646,1.799167 1.5875,2.38125 0.29105,0.582084 0.7673,1.714501 1.05834,2.513542 0.29104,0.799042 0.70644,2.288646 0.92604,3.307292 0.2196,1.018646 0.45773,3.222625 0.52917,4.894792 0.0873,2.005542 -0.003,3.944942 -0.26459,5.688542 -0.2196,1.45521 -0.57414,2.94217 -0.79375,3.30729 -0.2196,0.36513 -0.57414,0.66146 -0.79375,0.66146 -0.2196,0 -0.69321,-0.29633 -1.71979,-1.32292 l 0.39688,-1.85208 c 0.23283,-1.08744 0.39687,-3.21998 0.39687,-5.15938 0,-2.336266 -0.1561,-4.005787 -0.52917,-5.688537 -0.29104,-1.309688 -0.9472,-3.275542 -1.4552,-4.365625 -0.508,-1.090084 -1.28323,-2.399771 -1.71979,-2.910417 -0.43657,-0.510646 -0.91282,-0.926042 -1.05834,-0.926042 -0.14552,0 -0.74083,1.010708 -1.32291,2.248959 -0.58209,1.23825 -1.95263,3.6195 -3.04271,5.291666 -1.09009,1.672167 -3.23586,4.529667 -4.7625,6.349996 -1.52665,1.82034 -5.57477,6.1648 -8.99584,9.6573 -3.8682,3.95023 -6.71777,7.09877 -7.54062,8.33437 -0.72761,1.09009 -1.44198,2.16429 -1.5875,2.38125 -0.21961,0.33073 -0.30956,0.28575 -0.52917,-0.26458 -0.14552,-0.36513 -0.26458,-1.13771 -0.26458,-1.71979 0,-0.635 0.26458,-1.53459 1.32292,-3.43959 l -1.05834,-2.38125 c -0.58208,-1.30968 -1.41552,-3.45281 -1.85208,-4.7625 -0.43656,-1.30968 -1.09008,-3.86821 -1.45521,-5.68854 -0.55562,-2.772832 -0.66146,-4.056061 -0.66146,-7.937499 0,-2.545292 0.11906,-5.286375 0.26459,-6.085417 0.14552,-0.799042 0.4445,-1.812396 0.66145,-2.248958 0.21696,-0.436563 5.15938,-5.55625 10.98021,-11.377084 z"
         fill-rule="evenodd"
         id="path16"
         style="stroke-width:0.264583" /><path
         fill="#3694d6"
         d="m 350.57188,110.33125 c 2.78077,-2.86543 4.55877,-4.49791 4.89479,-4.49791 0.33867,0 2.15635,1.67481 5.02708,4.6302 2.47386,2.5453 4.67519,4.9874 4.89479,5.42396 0.21961,0.44186 0.39688,1.50019 0.39688,2.38125 0,0.87313 -0.17727,2.0029 -0.39688,2.51355 -0.22489,0.52652 -2.33627,2.86543 -4.89479,5.42395 -3.42106,3.42107 -4.65666,4.49792 -5.15937,4.49792 -0.508,0 -1.67217,-1.03981 -5.02709,-4.49792 -2.39977,-2.47385 -4.54554,-4.8551 -4.7625,-5.29166 -0.23018,-0.46038 -0.39687,-1.51342 -0.39687,-2.51354 0,-1.23561 0.14817,-1.98173 0.52917,-2.64584 0.29104,-0.51064 2.49502,-2.9501 4.89479,-5.42396 z m 4.63021,-1.05833 c -5.12763,5.33135 -6.7945,7.11729 -7.01146,7.40833 -0.21696,0.29104 -0.39688,1.06363 -0.39688,1.7198 0,0.9816 0.1614,1.37583 0.92604,2.24895 0.51065,0.58209 2.23573,2.30982 3.83646,3.83646 l 2.91042,2.77813 c 4.71752,-4.51115 6.4426,-6.29709 6.87917,-6.87917 0.47095,-0.62706 0.79375,-1.38112 0.79375,-1.85208 0,-0.43657 -0.17728,-1.15094 -0.39688,-1.5875 -0.2196,-0.43657 -2.00554,-2.34157 -3.96875,-4.23334 z"
         fill-rule="evenodd"
         id="path17"
         style="fill:#20a8e2;fill-opacity:1;stroke-width:0.264583" /><path
         fill="#8051c4"
         d="m 340.86499,120.99727 -1.27332,2.96003 c -0.72761,1.67216 -1.68011,4.17247 -2.11667,5.55625 -0.43656,1.38377 -1.03187,3.64331 -1.32291,5.02708 -0.32015,1.52135 -0.58209,4.0296 -0.66146,6.35 -0.0714,2.11137 -0.0132,4.84981 0.39687,8.33437 l 8.33438,8.46667 c 4.58258,4.65667 8.99054,9.12283 11.24479,11.37708 l 9.39271,-9.525 c 5.16466,-5.23875 9.56998,-9.82133 9.78958,-10.18645 0.2196,-0.36513 0.51594,-1.79123 0.66146,-3.175 0.14552,-1.38378 0.20373,-3.88144 0.13229,-5.55625 -0.0714,-1.67482 -0.37042,-4.29419 -0.66146,-5.82084 -0.29104,-1.52664 -0.94721,-4.0296 -1.45521,-5.55625 -0.508,-1.52664 -1.4605,-3.90789 -2.11666,-5.29166 -1.10332,-2.32834 -1.26079,-2.85674 -1.26079,-4.8173 0,-1.28238 0.18129,-1.92958 0.33474,-1.92958 0.14553,0 0.68263,0.65617 1.19063,1.45521 0.508,0.79904 1.4605,2.58498 2.11667,3.96875 0.65616,1.38377 1.66687,3.94229 2.24895,5.68854 0.58209,1.74625 1.29646,4.36563 1.5875,5.82083 0.42863,2.14313 0.52917,3.70417 0.52917,8.20209 0,3.05593 -0.11906,6.21241 -0.52917,8.46666 l -8.46666,8.59896 c -4.65667,4.73075 -9.53823,9.67052 -10.84792,10.98021 -1.30969,1.30969 -2.50031,2.38125 -2.64583,2.38125 -0.14552,0 -5.02708,-4.82335 -10.84792,-10.71562 -5.82083,-5.89227 -10.76325,-11.01196 -10.98021,-11.37709 -0.21695,-0.36512 -0.51593,-1.55575 -0.66145,-2.64583 -0.14553,-1.09008 -0.32544,-2.75696 -0.39688,-3.70417 -0.0714,-0.94721 -0.0132,-3.08769 0.13229,-4.7625 0.14552,-1.67481 0.50271,-4.23333 0.79375,-5.68854 0.29104,-1.45521 0.94456,-3.89731 1.45521,-5.42396 0.51065,-1.52664 1.34144,-3.67241 1.85208,-4.7625 0.51065,-1.09008 1.52136,-2.99508 3.57188,-6.48229 0,0 0.42472,0.558 0.56224,1.73633 0.12056,1.03299 0.0165,1.52136 0.0165,1.52136"
         fill-rule="evenodd"
         id="path19"
         style="stroke-width:0.264583"
         sodipodi:nodetypes="ccsccccccssssscsssssssccsssssssssscsc" /><path
         fill="#7953c0"
         d="m 369.225,121.97292 0.66146,0.92604 c 0.36512,0.51065 0.66146,1.10596 0.66146,1.32292 0,0.21696 -2.38125,2.83898 -5.29167,5.82083 -2.91041,2.98186 -6.48229,6.91092 -7.9375,8.73125 -1.45521,1.82034 -3.36021,4.37886 -4.23333,5.68854 -0.87313,1.30969 -2.06375,3.33375 -2.64583,4.49792 -0.58209,1.16417 -1.23825,2.53471 -1.85209,3.96875 l 3.30729,3.30729 c 1.82034,1.82034 3.42636,3.30729 3.57188,3.30729 0.14552,0 1.75154,-1.42875 3.57187,-3.175 3.23057,-3.10091 3.302,-3.19352 3.04271,-3.96875 -0.14552,-0.43656 -0.68262,-1.68804 -1.19062,-2.77812 -0.508,-1.09008 -1.69863,-3.11415 -4.36563,-7.01146 l 0.79375,-1.05833 c 0.43656,-0.58209 0.91281,-0.99748 1.05834,-0.92604 0.14552,0.0714 1.03716,1.32291 1.98437,2.77812 0.94721,1.45521 2.19604,3.65919 2.77813,4.89479 0.58208,1.23561 1.17739,2.24896 1.32291,2.24896 0.14552,0 0.62177,-0.41804 1.05834,-0.92604 0.43656,-0.508 1.21179,-1.82033 1.71979,-2.91042 0.508,-1.09008 1.10331,-2.64054 1.32291,-3.43958 0.22754,-0.83608 0.45244,-3.1459 0.52917,-5.42396 0.0952,-2.86808 0.0212,-4.59317 -0.26458,-6.21771 -0.38365,-2.17487 -0.37836,-2.26748 0.13229,-2.77812 0.29104,-0.29104 0.76729,-0.52917 1.05833,-0.52917 0.29104,0 0.64823,0.17992 0.79375,0.39688 0.14552,0.21695 0.44186,1.23031 0.66146,2.24895 0.25665,1.19592 0.39687,3.3073 0.39687,5.95313 0,3.175 -0.11906,4.60904 -0.52916,6.35 -0.29104,1.2356 -0.76729,2.84427 -1.05834,3.57187 -0.29104,0.72761 -1.06362,2.15636 -1.71979,3.175 -0.82814,1.28853 -3.00566,3.62744 -13.09687,13.49375 l -6.61458,-6.61458 c -6.36853,-6.36852 -6.65428,-6.6966 -7.67292,-8.86354 -0.58208,-1.23561 -1.29646,-3.26231 -1.5875,-4.49792 -0.42069,-1.78594 -0.52917,-3.175 -0.52917,-6.74687 0,-3.11679 0.12171,-4.98475 0.39688,-6.08542 0.21696,-0.87312 0.51593,-1.76742 0.66146,-1.98437 0.14552,-0.21696 0.56091,-0.39688 0.92604,-0.39688 0.36512,0 0.84137,0.23813 1.05833,0.52917 0.3519,0.47096 0.3519,0.76464 0,2.64583 -0.23283,1.24354 -0.39687,3.64596 -0.39687,5.82083 0,2.86544 0.11906,4.15396 0.52916,5.68855 0.29104,1.09008 0.8255,2.64054 1.19063,3.43958 0.36512,0.79904 1.13771,2.11137 1.71979,2.91042 0.58208,0.79904 1.17739,1.4552 1.32292,1.4552 0.14552,0 0.67997,-1.01335 1.19062,-2.24895 0.51065,-1.23561 1.87854,-3.67771 3.04271,-5.42396 1.16417,-1.74625 3.06917,-4.36563 4.23333,-5.82084 1.16417,-1.4552 3.54542,-4.13279 5.29167,-5.95312 1.74625,-1.82033 4.48469,-4.67783 8.99583,-9.39271 z"
         fill-rule="evenodd"
         id="path20"
         style="stroke-width:0.264583" /><path
         fill="#6167bf"
         d="m 341.17917,122.2375 5.68854,5.42396 c 3.12738,2.98186 6.04573,5.90021 7.27604,7.54063 l -1.85208,1.85208 -1.19063,-1.32292 c -0.65616,-0.7276 -3.33375,-3.46604 -5.95312,-6.08541 -2.61938,-2.61938 -4.7625,-4.94242 -4.7625,-5.15938 0,-0.21696 0.17992,-0.81227 0.79375,-2.24896 z"
         fill-rule="evenodd"
         id="path21"
         style="fill:#8051c4;fill-opacity:1;stroke-width:0.264583" /></g><g
       inkscape:groupmode="layer"
       id="layer5"
       inkscape:label="Loom Text"
       style="fill:#1a1a1a"
       transform="translate(0.92604164,0.13229166)"><text
         style="font-weight:bold;font-size:128px;font-family:'IBM Plex Serif';-inkscape-font-specification:'IBM Plex Serif Bold';text-align:center;white-space:pre;fill:#0d1216;fill-opacity:1;stroke:#ffffff;stroke-width:1.53192128;stroke-dasharray:none;stroke-opacity:1"
         transform="matrix(0.26458333,0,0,0.26458333,-42.846254,-82.009149)"
         x="1336.6396"
         y="768.16919"
         id="text5">L</text><text
         style="font-weight:bold;font-size:128px;font-family:'IBM Plex Serif';-inkscape-font-specification:'IBM Plex Serif Bold';text-align:center;white-space:pre;fill:#0d1216;fill-opacity:1;stroke:#ffffff;stroke-width:1.53192128;stroke-dasharray:none;stroke-opacity:1"
         transform="matrix(0.26458333,0,0,0.26458333,-42.846254,-82.009149)"
         x="1412.7998"
         y="768.16919"
         id="text4">O</text><text
         style="font-weight:bold;font-size:128px;font-family:'IBM Plex Serif';-inkscape-font-specification:'IBM Plex Serif Bold';text-align:center;white-space:pre;fill:#0d1216;fill-opacity:1;stroke:#ffffff;stroke-width:1.53192128;stroke-dasharray:none;stroke-opacity:1"
         transform="matrix(0.26458333,0,0,0.26458333,-42.846254,-82.009149)"
         x="1510.0798"
         y="768.16919"
         id="text3">O</text><text
         style="font-weight:bold;font-size:33.8667px;font-family:'IBM Plex Serif';-inkscape-font-specification:'IBM Plex Serif Bold';text-align:center;white-space:pre;fill:#0d1216;fill-opacity:1;stroke:#ffffff;stroke-width:0.40532083;stroke-dasharray:none;stroke-opacity:1"
         x="381.37604"
         y="121.23561"
         id="text2">M</text></g></g></svg>
